<?xml version="1.0" standalone="no"?>
<!DOCTYPE svg PUBLIC "-//W3C//DTD SVG 20010904//EN"
 "http://www.w3.org/TR/2001/REC-SVG-20010904/DTD/svg10.dtd">
<svg version="1.0" xmlns="http://www.w3.org/2000/svg"
 width="260.000000pt" height="260.000000pt" viewBox="0 0 260.000000 260.000000"
 preserveAspectRatio="xMidYMid meet">
<metadata>
Created by potrace 1.11, written by Peter Selinger 2001-2013
</metadata>
<g transform="translate(0.000000,260.000000) scale(0.100000,-0.100000)"
fill="#000000" stroke="none">
<path d="M1610 2243 c-95 -33 -193 -125 -244 -228 -47 -96 -85 -327 -64 -387
18 -51 92 -57 117 -10 6 11 10 82 10 158 0 77 3 153 6 169 24 124 96 222 215
294 41 25 24 27 -40 4z"/>
<path d="M198 1813 c111 -2 293 -2 405 0 111 1 20 2 -203 2 -223 0 -314 -1
-202 -2z"/>
<path d="M884 1805 c2 -7 89 -149 192 -314 l187 -301 -1 -215 c-1 -214 -1
-215 21 -216 27 -1 146 -1 167 0 13 1 15 33 16 219 l0 217 192 308 c106 169
192 309 192 312 0 2 -50 3 -112 2 l-112 -2 -51 -86 c-29 -47 -63 -105 -77
-130 -46 -81 -130 -224 -134 -228 -2 -2 -8 7 -14 20 -6 13 -26 49 -45 79 -20
30 -40 64 -45 75 -5 11 -42 76 -83 145 l-73 125 -113 1 c-87 1 -111 -1 -107
-11z"/>
<path d="M2092 1813 c92 -2 245 -2 340 0 95 1 20 3 -167 3 -187 0 -265 -2
-173 -3z"/>
<path d="M496 1648 c-124 -16 -232 -92 -285 -198 -42 -83 -55 -144 -55 -255 1
-287 163 -457 429 -449 176 5 295 87 339 234 25 83 27 80 -69 80 l-84 0 -11
-39 c-21 -80 -94 -131 -188 -131 -160 0 -257 142 -239 348 14 162 85 252 211
267 97 12 176 -29 211 -109 l23 -51 73 2 c41 1 78 2 83 2 11 1 -2 67 -24 118
-21 48 -88 117 -140 143 -76 39 -171 52 -274 38z"/>
<path d="M1879 1638 c0 -2 -1 -196 -2 -432 -1 -294 1 -433 9 -440 7 -7 99 -10
280 -9 148 1 272 2 277 2 4 1 7 35 7 76 l0 75 -200 0 -200 0 -1 138 c0 75 0
239 0 365 l1 227 -85 0 c-47 0 -85 -1 -86 -2z"/>
<path d="M23 673 c15 -2 37 -2 50 0 12 2 0 4 -28 4 -27 0 -38 -2 -22 -4z"/>
<path d="M128 673 c18 -2 45 -2 60 0 15 2 0 4 -33 4 -33 0 -45 -2 -27 -4z"/>
<path d="M248 673 c18 -2 45 -2 60 0 15 2 0 4 -33 4 -33 0 -45 -2 -27 -4z"/>
<path d="M368 673 c18 -2 45 -2 60 0 15 2 0 4 -33 4 -33 0 -45 -2 -27 -4z"/>
<path d="M488 673 c18 -2 45 -2 60 0 15 2 0 4 -33 4 -33 0 -45 -2 -27 -4z"/>
<path d="M608 673 c18 -2 45 -2 60 0 15 2 0 4 -33 4 -33 0 -45 -2 -27 -4z"/>
<path d="M728 673 c18 -2 45 -2 60 0 15 2 0 4 -33 4 -33 0 -45 -2 -27 -4z"/>
<path d="M848 673 c18 -2 45 -2 60 0 15 2 0 4 -33 4 -33 0 -45 -2 -27 -4z"/>
<path d="M968 673 c18 -2 45 -2 60 0 15 2 0 4 -33 4 -33 0 -45 -2 -27 -4z"/>
<path d="M1088 673 c18 -2 45 -2 60 0 15 2 0 4 -33 4 -33 0 -45 -2 -27 -4z"/>
<path d="M1388 673 c117 -2 306 -2 420 0 114 1 18 2 -213 2 -231 0 -324 -1
-207 -2z"/>
<path d="M2048 673 c18 -2 45 -2 60 0 15 2 0 4 -33 4 -33 0 -45 -2 -27 -4z"/>
<path d="M2168 673 c18 -2 45 -2 60 0 15 2 0 4 -33 4 -33 0 -45 -2 -27 -4z"/>
<path d="M2288 673 c18 -2 45 -2 60 0 15 2 0 4 -33 4 -33 0 -45 -2 -27 -4z"/>
<path d="M2408 673 c18 -2 45 -2 60 0 15 2 0 4 -33 4 -33 0 -45 -2 -27 -4z"/>
<path d="M2523 673 c15 -2 39 -2 55 0 15 2 2 4 -28 4 -30 0 -43 -2 -27 -4z"/>
<path d="M122 589 c-56 -21 -43 -85 23 -107 65 -21 77 -38 49 -66 -24 -24 -60
-19 -83 11 -25 31 -40 23 -21 -12 24 -45 120 -42 138 4 12 32 -12 64 -63 80
-42 13 -50 20 -50 40 0 15 8 27 20 31 26 10 65 -5 65 -25 0 -8 5 -15 10 -15
14 0 13 23 -2 42 -16 19 -57 27 -86 17z"/>
<path d="M1463 589 c-12 -4 -27 -17 -33 -29 -15 -28 9 -67 48 -76 33 -8 72
-31 72 -44 0 -17 -32 -40 -55 -40 -14 0 -32 11 -44 27 -25 31 -39 24 -23 -11
22 -49 125 -43 138 8 9 37 -9 59 -63 76 -40 12 -48 19 -48 39 0 15 8 27 20 31
26 10 65 -5 65 -25 0 -8 5 -15 10 -15 14 0 12 36 -3 48 -18 16 -59 21 -84 11z"/>
<path d="M569 578 c-1 -14 0 -168 0 -180 1 -5 6 -8 11 -8 6 0 10 40 10 100 0
60 -4 100 -10 100 -5 0 -10 -6 -11 -12z"/>
<path d="M879 586 c-3 -3 -3 -134 0 -191 1 -6 27 -9 61 -9 68 2 78 17 12 20
-23 0 -46 4 -49 8 -4 4 -6 45 -5 91 1 74 -4 96 -19 81z"/>
<path d="M1184 490 c0 -90 2 -99 17 -95 10 3 20 1 24 -5 10 -16 40 -12 69 11
35 28 36 80 1 114 -25 26 -59 33 -70 15 -11 -17 -22 -11 -22 13 -1 38 -3 47
-11 47 -4 0 -8 -45 -8 -100z m96 10 c12 -12 19 -30 17 -44 -6 -50 -51 -73 -77
-40 -27 32 -9 104 26 104 8 0 23 -9 34 -20z"/>
<path d="M1754 490 c1 -62 5 -100 11 -100 7 0 11 38 11 100 0 66 -4 100 -11
100 -8 0 -11 -33 -11 -100z"/>
<path d="M2050 575 c0 -8 5 -15 10 -15 6 0 10 7 10 15 0 8 -4 15 -10 15 -5 0
-10 -7 -10 -15z"/>
<path d="M1970 556 c0 -13 -6 -27 -12 -29 -10 -4 -10 -6 0 -6 8 -1 12 -21 12
-65 0 -57 3 -65 21 -71 27 -9 37 2 15 18 -13 10 -17 24 -14 62 2 33 7 49 16
48 17 -4 15 16 -3 23 -8 4 -15 12 -15 19 0 8 -4 17 -10 20 -6 3 -10 -5 -10
-19z"/>
<path d="M274 515 c-32 -32 -32 -78 1 -110 13 -14 33 -25 45 -25 21 0 60 32
60 50 0 17 -14 11 -28 -11 -17 -27 -52 -21 -72 14 -13 24 -13 30 0 54 20 35
43 40 69 14 24 -24 41 -8 17 17 -23 27 -63 25 -92 -3z"/>
<path d="M429 521 c-32 -26 -19 -36 19 -14 25 14 32 15 46 4 22 -19 3 -41 -35
-41 -39 0 -64 -36 -45 -65 16 -24 51 -31 71 -15 10 8 19 8 34 0 20 -10 29 -1
14 13 -3 4 -7 30 -8 59 -3 74 -45 100 -96 59z m71 -82 c0 -26 -44 -47 -64 -30
-18 15 -11 39 12 43 42 9 52 6 52 -13z"/>
<path d="M671 531 c-8 -5 -20 -7 -28 -4 -10 4 -13 -16 -13 -96 0 -61 4 -101
10 -101 6 0 10 16 10 35 0 33 1 34 26 24 49 -18 77 4 87 68 8 53 -52 100 -92
74z m54 -25 c36 -26 13 -106 -31 -106 -39 0 -59 74 -28 104 19 20 35 20 59 2z"/>
<path d="M1058 533 c-16 -4 -33 -32 -24 -41 3 -2 12 3 21 12 18 18 25 19 49
10 25 -10 19 -33 -11 -40 -16 -3 -38 -9 -50 -14 -47 -19 -14 -87 36 -75 34 8
43 8 60 4 7 -2 16 2 19 10 3 8 0 11 -7 7 -8 -5 -11 10 -10 50 2 73 -20 94 -83
77z m62 -93 c0 -23 -34 -43 -59 -35 -26 8 -19 38 10 46 41 12 49 10 49 -11z"/>
<path d="M1630 533 c-25 -10 -39 -36 -39 -73 0 -44 19 -70 56 -74 38 -5 59 8
71 44 23 65 -29 126 -88 103z m55 -27 c21 -15 23 -69 4 -92 -27 -33 -79 -4
-79 46 0 30 22 60 44 60 7 0 20 -6 31 -14z"/>
<path d="M2140 533 c-26 -9 -40 -35 -40 -73 0 -46 17 -68 55 -75 38 -7 65 14
75 57 13 64 -33 111 -90 91z m51 -23 c37 -21 17 -110 -26 -110 -23 0 -45 30
-45 60 0 28 22 60 41 60 6 0 19 -5 30 -10z"/>
<path d="M2295 530 c-3 -5 -12 -7 -20 -3 -12 4 -15 -8 -15 -66 0 -41 4 -71 10
-71 6 0 10 22 10 49 0 50 17 81 44 81 24 0 35 -25 33 -75 -1 -31 3 -50 11 -53
9 -3 12 13 12 57 0 51 -3 62 -22 75 -25 18 -54 21 -63 6z"/>
<path d="M2438 533 c-20 -5 -35 -50 -22 -63 5 -5 25 -12 44 -17 38 -10 51 -36
24 -47 -24 -9 -54 3 -54 22 0 12 -3 13 -11 5 -30 -30 38 -66 80 -43 32 16 28
58 -6 71 -48 19 -58 26 -58 40 0 18 55 15 66 -3 4 -7 11 -9 15 -5 10 10 -26
47 -45 46 -9 -1 -24 -3 -33 -6z"/>
<path d="M1814 469 c1 -52 5 -64 23 -76 14 -10 30 -12 45 -7 13 4 29 7 36 6 9
-2 12 17 12 68 0 40 -4 70 -10 70 -5 0 -10 -22 -10 -48 0 -27 -6 -57 -14 -67
-12 -16 -18 -18 -40 -7 -22 10 -26 17 -25 54 2 58 0 68 -9 68 -5 0 -8 -28 -8
-61z"/>
<path d="M2048 508 c-5 -39 3 -118 13 -118 5 0 9 32 9 70 0 66 -15 98 -22 48z"/>
</g>
</svg>
